# xmcd
#
# Track frame offsets: 
#        150
#        16620
#        29957
#        42237
#        54570
#        69097
#        86320
#        98670
#        112820
#        128022
#        144300
#        163945
#        178580
#        193907
#        207575
#        226347
#        241957
#
# Disc length: 3473 seconds
#
# Revision: 1
# Processed by: cddbd v1.5.2PL0 Copyright (c) Steve Scherf et al.
# Submitted via: ExactAudioCopy v0.95b1
#
DISCID=df0d8f11
DTITLE=Various Artist - Kukerpillid - Pojad on mul õige naksid CD1
DYEAR=2002
DGENRE=Country
TTITLE0=Kukerpillid - Rahvaloendaja
TTITLE1=Emil Rutiku ja Kukerpillid - Kiitus (Pojad on mul õige naksid)
TTITLE2=Peeter Oja ja Kukerpillid - Vana arm ei roosteta
TTITLE3=Kukerpillid - Kellest sa mõtlesid
TTITLE4=Kate, Kikas, Rebane - Vana ja väsinud mees
TTITLE5=Kukerpillid - Matilda
TTITLE6=Kukerpillid - Tahtsin sind tänada
TTITLE7=Marko Matvere ja Kukerpillid - Padi
TTITLE8=Kukerpillid - Viimne tants
TTITLE9=Kukerpillid - Mr. Kannibal
TTITLE10=Kukerpillid - Pank
TTITLE11=Lindpriid - Hingesügis
TTITLE12=Rock Hotel - Pudelilugu
TTITLE13=Kukerpillid - Talvevalgus
TTITLE14=Kukerpillid - Järveveel
TTITLE15=G-Enka, DJ Isa, Onu T - Pseudovestern
TTITLE16=Zorg - Jää jumalaga Mann
EXTD=YEAR: 2002 ID3G: 2
EXTT0=
EXTT1=
EXTT2=
EXTT3=
EXTT4=
EXTT5=
EXTT6=
EXTT7=
EXTT8=
EXTT9=
EXTT10=
EXTT11=
EXTT12=
EXTT13=
EXTT14=
EXTT15=
EXTT16=
PLAYORDER=
